<svg id="visual" viewBox="0 0 900 600" width="900" height="600" xmlns="http://www.w3.org/2000/svg" xmlns:xlink="http://www.w3.org/1999/xlink" version="1.1"><rect x="0" y="0" width="900" height="600" fill="#95999c"></rect><defs><linearGradient id="grad1_0" x1="33.3%" y1="0%" x2="100%" y2="100%"><stop offset="20%" stop-color="#95999c" stop-opacity="1"></stop><stop offset="80%" stop-color="#95999c" stop-opacity="1"></stop></linearGradient></defs><defs><linearGradient id="grad2_0" x1="0%" y1="0%" x2="66.7%" y2="100%"><stop offset="20%" stop-color="#95999c" stop-opacity="1"></stop><stop offset="80%" stop-color="#95999c" stop-opacity="1"></stop></linearGradient></defs><g transform="translate(900, 0)"><path d="M0 486.7C-65.7 480.6 -131.4 474.4 -185.2 447.2C-239 419.9 -280.8 371.6 -326.7 326.7C-372.5 281.7 -422.4 240.2 -449.7 186.3C-477 132.4 -481.9 66.2 -486.7 0L0 0Z" fill="#819ac0"></path></g><g transform="translate(0, 600)"><path d="M0 -486.7C54.1 -455.6 108.1 -424.4 167.6 -404.7C227.1 -384.9 292 -376.6 342.2 -342.2C392.5 -307.9 428.1 -247.6 449.7 -186.3C471.3 -124.9 479 -62.5 486.7 0L0 0Z" fill="#819ac0"></path></g></svg>