<svg id="visual" viewBox="0 0 900 600" width="900" height="600" xmlns="http://www.w3.org/2000/svg" xmlns:xlink="http://www.w3.org/1999/xlink" version="1.1"><rect x="0" y="0" width="900" height="600" fill="#cde2f2"></rect><path d="M0 337L21.5 335.3C43 333.7 86 330.3 128.8 336.5C171.7 342.7 214.3 358.3 257.2 356.7C300 355 343 336 385.8 327.2C428.7 318.3 471.3 319.7 514.2 317.3C557 315 600 309 642.8 315C685.7 321 728.3 339 771.2 334.5C814 330 857 303 878.5 289.5L900 276L900 601L878.5 601C857 601 814 601 771.2 601C728.3 601 685.7 601 642.8 601C600 601 557 601 514.2 601C471.3 601 428.7 601 385.8 601C343 601 300 601 257.2 601C214.3 601 171.7 601 128.8 601C86 601 43 601 21.5 601L0 601Z" fill="#819ac0"></path><path d="M0 432L21.5 416.5C43 401 86 370 128.8 359.7C171.7 349.3 214.3 359.7 257.2 366.8C300 374 343 378 385.8 369C428.7 360 471.3 338 514.2 330.7C557 323.3 600 330.7 642.8 341.2C685.7 351.7 728.3 365.3 771.2 369.2C814 373 857 367 878.5 364L900 361L900 601L878.5 601C857 601 814 601 771.2 601C728.3 601 685.7 601 642.8 601C600 601 557 601 514.2 601C471.3 601 428.7 601 385.8 601C343 601 300 601 257.2 601C214.3 601 171.7 601 128.8 601C86 601 43 601 21.5 601L0 601Z" fill="#798dab"></path><path d="M0 457L21.5 450.5C43 444 86 431 128.8 433.5C171.7 436 214.3 454 257.2 455.5C300 457 343 442 385.8 427.8C428.7 413.7 471.3 400.3 514.2 406.7C557 413 600 439 642.8 447C685.7 455 728.3 445 771.2 436.7C814 428.3 857 421.7 878.5 418.3L900 415L900 601L878.5 601C857 601 814 601 771.2 601C728.3 601 685.7 601 642.8 601C600 601 557 601 514.2 601C471.3 601 428.7 601 385.8 601C343 601 300 601 257.2 601C214.3 601 171.7 601 128.8 601C86 601 43 601 21.5 601L0 601Z" fill="#718096"></path><path d="M0 509L21.5 498.3C43 487.7 86 466.3 128.8 465.3C171.7 464.3 214.3 483.7 257.2 486.7C300 489.7 343 476.3 385.8 465.7C428.7 455 471.3 447 514.2 453.7C557 460.3 600 481.7 642.8 481C685.7 480.3 728.3 457.7 771.2 459.3C814 461 857 487 878.5 500L900 513L900 601L878.5 601C857 601 814 601 771.2 601C728.3 601 685.7 601 642.8 601C600 601 557 601 514.2 601C471.3 601 428.7 601 385.8 601C343 601 300 601 257.2 601C214.3 601 171.7 601 128.8 601C86 601 43 601 21.5 601L0 601Z" fill="#697382"></path><path d="M0 528L21.5 532.7C43 537.3 86 546.7 128.8 547.3C171.7 548 214.3 540 257.2 532.5C300 525 343 518 385.8 518.8C428.7 519.7 471.3 528.3 514.2 527C557 525.7 600 514.3 642.8 508.7C685.7 503 728.3 503 771.2 508.7C814 514.3 857 525.7 878.5 531.3L900 537L900 601L878.5 601C857 601 814 601 771.2 601C728.3 601 685.7 601 642.8 601C600 601 557 601 514.2 601C471.3 601 428.7 601 385.8 601C343 601 300 601 257.2 601C214.3 601 171.7 601 128.8 601C86 601 43 601 21.5 601L0 601Z" fill="#62676e"></path></svg>