<svg id="visual" viewBox="0 0 900 600" width="900" height="600" xmlns="http://www.w3.org/2000/svg" xmlns:xlink="http://www.w3.org/1999/xlink" version="1.1"><rect x="0" y="0" width="900" height="600" fill="#b7d4ee"></rect><path d="M0 402L37.5 360.5C75 319 150 236 225 228C300 220 375 287 450 335.3C525 383.7 600 413.3 675 415.8C750 418.3 825 393.7 862.5 381.3L900 369L900 601L862.5 601C825 601 750 601 675 601C600 601 525 601 450 601C375 601 300 601 225 601C150 601 75 601 37.5 601L0 601Z" fill="#9d9d9e" stroke-linecap="round" stroke-linejoin="miter"></path></svg>